<?xml version="1.0" encoding="UTF-8"?><svg id="Layer_1" xmlns="http://www.w3.org/2000/svg" xmlns:xlink="http://www.w3.org/1999/xlink" viewBox="0 0 800 500"><defs><style>.cls-1{fill:none;}.cls-1,.cls-2,.cls-3,.cls-4,.cls-5,.cls-6,.cls-7,.cls-8,.cls-9,.cls-10,.cls-11{stroke-width:0px;}.cls-2{fill:url(#linear-gradient);}.cls-12{clip-path:url(#clippath-1);}.cls-13{clip-path:url(#clippath-4);}.cls-14{clip-path:url(#clippath-3);}.cls-15{clip-path:url(#clippath-2);}.cls-16{clip-path:url(#clippath-7);}.cls-17{clip-path:url(#clippath-8);}.cls-18{clip-path:url(#clippath-6);}.cls-19{clip-path:url(#clippath-9);}.cls-20{clip-path:url(#clippath-14);}.cls-21{clip-path:url(#clippath-13);}.cls-22{clip-path:url(#clippath-15);}.cls-23{clip-path:url(#clippath-17);}.cls-24{clip-path:url(#clippath-16);}.cls-25{clip-path:url(#clippath-18);}.cls-3{fill:url(#linear-gradient-2);}.cls-4{fill:url(#linear-gradient-3);}.cls-5{fill:#1e9cd7;}.cls-6{fill:#cce0f4;}.cls-7{fill:#fff;}.cls-8{fill:#ffc300;}.cls-9{fill:#005b97;}.cls-10{fill:#001f3f;}.cls-11{fill:#0075be;}</style><clipPath id="clippath-1"><line class="cls-1" x1="376.85" y1="126.73" x2="386.33" y2="155.91"/></clipPath><clipPath id="clippath-2"><line class="cls-1" x1="340.61" y1="143.86" x2="358.65" y2="168.68"/></clipPath><clipPath id="clippath-3"><line class="cls-1" x1="311.45" y1="171.35" x2="336.27" y2="189.39"/></clipPath><clipPath id="clippath-4"><line class="cls-1" x1="292.21" y1="206.51" x2="321.38" y2="215.99"/></clipPath><clipPath id="clippath-6"><line class="cls-1" x1="450.03" y1="126.73" x2="440.55" y2="155.91"/></clipPath><clipPath id="clippath-7"><line class="cls-1" x1="486.26" y1="143.86" x2="468.23" y2="168.68"/></clipPath><clipPath id="clippath-8"><line class="cls-1" x1="515.43" y1="171.35" x2="490.61" y2="189.39"/></clipPath><clipPath id="clippath-9"><line class="cls-1" x1="534.67" y1="206.51" x2="505.49" y2="215.99"/></clipPath><clipPath id="clippath-13"><line class="cls-1" x1="486.26" y1="347.96" x2="468.23" y2="323.14"/></clipPath><clipPath id="clippath-14"><line class="cls-1" x1="515.43" y1="320.47" x2="490.61" y2="302.44"/></clipPath><clipPath id="clippath-15"><line class="cls-1" x1="534.67" y1="285.31" x2="505.49" y2="275.83"/></clipPath><clipPath id="clippath-16"><line class="cls-1" x1="340.61" y1="347.96" x2="358.65" y2="323.14"/></clipPath><clipPath id="clippath-17"><line class="cls-1" x1="311.45" y1="320.47" x2="336.27" y2="302.44"/></clipPath><clipPath id="clippath-18"><line class="cls-1" x1="292.21" y1="285.31" x2="321.38" y2="275.83"/></clipPath><linearGradient id="linear-gradient" x1="225.33" y1="431.16" x2="225.33" y2="164.2" gradientUnits="userSpaceOnUse"><stop offset="0" stop-color="#005add"/><stop offset="1" stop-color="#00a7fd"/></linearGradient><linearGradient id="linear-gradient-2" x1="253.42" y1="167.3" x2="596.68" y2="167.3" xlink:href="#linear-gradient"/><linearGradient id="linear-gradient-3" x1="390.48" y1="327.65" x2="679.89" y2="327.65" gradientUnits="userSpaceOnUse"><stop offset="0" stop-color="#0081ed"/><stop offset="1" stop-color="#005add"/></linearGradient></defs><path class="cls-8" d="m450.37,330.37c-.69,0-1.35-.39-1.67-1.06-.44-.92-.04-2.02.88-2.46,17.17-8.15,30.51-22.34,37.59-39.95.38-.95,1.46-1.4,2.4-1.03.95.38,1.41,1.46,1.03,2.4-7.42,18.48-21.43,33.36-39.43,41.91-.26.12-.53.18-.79.18Z"/><path class="cls-8" d="m487,227.75c-.69,0-1.35-.39-1.67-1.06-8.15-17.17-22.34-30.51-39.95-37.59-.95-.38-1.41-1.46-1.03-2.4.38-.95,1.46-1.4,2.4-1.03,18.48,7.42,33.36,21.43,41.91,39.43.44.92.04,2.02-.88,2.46-.26.12-.53.18-.79.18Z"/><path class="cls-8" d="m345.87,232.05c-.23,0-.46-.04-.69-.13-.95-.38-1.41-1.46-1.03-2.4,7.42-18.48,21.43-33.36,39.43-41.91.92-.44,2.02-.05,2.46.88.44.92.04,2.02-.88,2.46-17.17,8.15-30.51,22.34-37.59,39.95-.29.72-.98,1.16-1.71,1.16Z"/><path class="cls-8" d="m388.67,332.26c-.23,0-.46-.04-.69-.13-18.48-7.42-33.36-21.43-41.91-39.43-.44-.92-.04-2.02.88-2.46.92-.44,2.02-.05,2.46.88,8.15,17.17,22.34,30.51,39.95,37.59.95.38,1.41,1.46,1.03,2.4-.29.72-.98,1.16-1.71,1.16Z"/><path class="cls-8" d="m416.6,154.16c-1.02,0-1.85-.83-1.85-1.85v-30.68c0-1.02.83-1.85,1.85-1.85s1.85.83,1.85,1.85v30.68c0,1.02-.83,1.85-1.85,1.85Z"/><g class="cls-12"><polygon class="cls-6" points="376.85 126.73 386.33 155.91 376.85 155.91 376.85 126.73"/><polygon class="cls-6" points="386.33 155.91 376.85 126.73 386.33 126.73 386.33 155.91 376.85 155.91 376.85 126.73 386.33 155.91 376.85 155.91 376.85 126.73 386.33 126.73 386.33 155.91"/><rect class="cls-5" x="381.59" y="125.98" height="30.68" transform="translate(-24.99 124.83) rotate(-18)"/><rect class="cls-5" x="381.59" y="125.98" height="30.68" transform="translate(-24.99 124.83) rotate(-18)"/><rect class="cls-11" x="381.59" y="125.98" height="30.68" transform="translate(-24.99 124.83) rotate(-18)"/><rect class="cls-11" x="381.59" y="125.98" height="30.68" transform="translate(-24.99 124.83) rotate(-18)"/><rect class="cls-9" x="381.59" y="125.98" height="30.68" transform="translate(-24.99 124.83) rotate(-18)"/><polygon class="cls-9" points="386.33 155.91 376.85 126.73 386.33 126.73 386.33 155.91"/></g><path class="cls-8" d="m386.32,157.75c-.78,0-1.5-.5-1.76-1.28l-9.48-29.18c-.32-.97.22-2.01,1.19-2.33.97-.31,2.01.21,2.33,1.19l9.48,29.18c.32.97-.22,2.01-1.19,2.33-.19.06-.38.09-.57.09Z"/><g class="cls-15"><polygon class="cls-6" points="340.61 143.86 358.65 168.68 340.61 168.68 340.61 143.86"/><rect class="cls-6" x="349.63" y="140.93" height="30.68" transform="translate(-25.08 235.35) rotate(-36)"/><rect class="cls-5" x="349.63" y="140.93" height="30.68" transform="translate(-25.08 235.35) rotate(-36)"/><rect class="cls-5" x="349.63" y="140.93" height="30.68" transform="translate(-25.08 235.35) rotate(-36)"/><rect class="cls-11" x="349.63" y="140.93" height="30.68" transform="translate(-25.08 235.35) rotate(-36)"/><rect class="cls-11" x="349.63" y="140.93" height="30.68" transform="translate(-25.08 235.35) rotate(-36)"/><rect class="cls-9" x="349.63" y="140.93" height="30.68" transform="translate(-25.08 235.35) rotate(-36)"/><polygon class="cls-9" points="358.65 168.68 340.61 143.86 358.65 143.86 358.65 168.68"/></g><path class="cls-8" d="m358.65,170.53c-.57,0-1.13-.26-1.5-.76l-18.03-24.82c-.6-.83-.42-1.98.41-2.58s1.98-.42,2.58.41l18.03,24.82c.6.83.42,1.98-.41,2.58-.33.24-.71.35-1.08.35Z"/><g class="cls-14"><polygon class="cls-6" points="311.45 171.35 336.27 189.39 311.45 189.39 311.45 171.35"/><rect class="cls-6" x="323.86" y="165.03" height="30.68" transform="translate(-12.42 336.36) rotate(-54)"/><rect class="cls-5" x="323.86" y="165.03" height="30.68" transform="translate(-12.42 336.36) rotate(-54)"/><polygon class="cls-5" points="311.45 171.35 311.45 171.35 336.27 189.39 336.27 189.39 311.45 171.35 311.45 171.35"/><polygon class="cls-11" points="311.45 171.35 311.45 171.35 336.27 189.39 336.27 189.39 311.45 171.35 311.45 171.35"/><polygon class="cls-11" points="311.45 171.35 311.45 171.35 336.27 189.39 336.27 189.39 311.45 171.35 311.45 171.35"/><polygon class="cls-9" points="311.45 171.35 311.45 171.35 336.27 189.39 336.27 189.39 311.45 171.35 311.45 171.35"/><polygon class="cls-9" points="336.27 189.39 311.45 171.35 336.27 171.35 336.27 189.39"/></g><path class="cls-8" d="m336.27,191.23c-.38,0-.76-.11-1.08-.35l-24.82-18.03c-.83-.6-1.01-1.75-.41-2.58.6-.82,1.75-1.01,2.58-.41l24.82,18.03c.83.6,1.01,1.75.41,2.58-.36.5-.92.76-1.5.76Z"/><g class="cls-13"><polygon class="cls-6" points="292.21 206.51 321.38 215.99 292.21 215.99 292.21 206.51"/><rect class="cls-6" x="306.8" y="195.91" height="30.68" transform="translate(11.08 437.75) rotate(-72)"/><rect class="cls-5" x="306.8" y="195.91" height="30.68" transform="translate(11.08 437.75) rotate(-72)"/><polygon class="cls-5" points="292.21 206.51 292.21 206.51 321.38 215.99 321.38 215.99 292.21 206.51 292.21 206.51"/><polygon class="cls-11" points="292.21 206.51 292.21 206.51 321.38 215.99 321.38 215.99 292.21 206.51 292.21 206.51"/><polygon class="cls-11" points="292.21 206.51 292.21 206.51 321.38 215.99 321.38 215.99 292.21 206.51 292.21 206.51"/><polygon class="cls-9" points="292.21 206.51 292.21 206.51 321.38 215.99 321.38 215.99 292.21 206.51 292.21 206.51"/><polygon class="cls-9" points="321.38 215.99 292.21 206.51 321.38 206.51 321.38 215.99"/></g><path class="cls-8" d="m321.38,217.84c-.19,0-.38-.03-.57-.09l-29.18-9.48c-.97-.32-1.5-1.36-1.19-2.33.32-.97,1.36-1.5,2.33-1.19l29.18,9.48c.97.32,1.5,1.36,1.19,2.33-.25.78-.98,1.28-1.76,1.28Z"/><path class="cls-8" d="m315.45,247.74h-30.68c-1.02,0-1.85-.83-1.85-1.85s.83-1.85,1.85-1.85h30.68c1.02,0,1.85.83,1.85,1.85s-.83,1.85-1.85,1.85Z"/><g class="cls-18"><polygon class="cls-6" points="440.55 155.91 450.03 126.73 450.03 155.91 440.55 155.91"/><rect class="cls-6" x="429.95" y="141.32" width="30.68" transform="translate(173.29 521.15) rotate(-72)"/><rect class="cls-5" x="429.95" y="141.32" width="30.68" transform="translate(173.29 521.15) rotate(-72)"/><rect class="cls-5" x="429.95" y="141.32" width="30.68" transform="translate(173.29 521.15) rotate(-72)"/><rect class="cls-11" x="429.95" y="141.32" width="30.68" transform="translate(173.29 521.15) rotate(-72)"/><rect class="cls-11" x="429.95" y="141.32" width="30.68" transform="translate(173.29 521.15) rotate(-72)"/><rect class="cls-9" x="429.95" y="141.32" width="30.68" transform="translate(173.29 521.15) rotate(-72)"/><polygon class="cls-9" points="450.03 126.73 440.55 155.91 440.55 126.73 450.03 126.73"/></g><path class="cls-8" d="m440.55,157.75c-.19,0-.38-.03-.57-.09-.97-.32-1.5-1.36-1.19-2.33l9.48-29.18c.32-.97,1.36-1.5,2.33-1.19.97.32,1.5,1.36,1.19,2.33l-9.48,29.18c-.25.78-.98,1.28-1.76,1.28Z"/><g class="cls-16"><polygon class="cls-6" points="468.23 168.68 486.26 143.86 486.26 168.68 468.23 168.68"/><rect class="cls-6" x="461.91" y="156.27" width="30.68" transform="translate(70.3 450.52) rotate(-54)"/><rect class="cls-5" x="461.91" y="156.27" width="30.68" transform="translate(70.3 450.52) rotate(-54)"/><rect class="cls-5" x="461.91" y="156.27" width="30.68" transform="translate(70.3 450.52) rotate(-54)"/><rect class="cls-11" x="461.91" y="156.27" width="30.68" transform="translate(70.3 450.52) rotate(-54)"/><rect class="cls-11" x="461.91" y="156.27" width="30.68" transform="translate(70.3 450.52) rotate(-54)"/><rect class="cls-9" x="461.91" y="156.27" width="30.68" transform="translate(70.3 450.52) rotate(-54)"/><polygon class="cls-9" points="486.26 143.86 468.23 168.68 468.23 143.86 486.26 143.86"/></g><path class="cls-8" d="m468.23,170.53c-.38,0-.76-.11-1.08-.35-.83-.6-1.01-1.75-.41-2.58l18.03-24.82c.6-.82,1.76-1.01,2.58-.41.83.6,1.01,1.75.41,2.58l-18.03,24.82c-.36.5-.92.76-1.5.76Z"/><g class="cls-17"><polygon class="cls-6" points="490.61 189.39 515.43 171.35 515.43 189.39 490.61 189.39"/><rect class="cls-6" x="487.68" y="180.37" width="30.68" transform="translate(-9.95 330.11) rotate(-36)"/><rect class="cls-5" x="487.68" y="180.37" width="30.68" transform="translate(-9.95 330.11) rotate(-36)"/><polygon class="cls-5" points="515.43 171.35 515.43 171.35 490.61 189.39 490.61 189.39 515.43 171.35 515.43 189.39 490.61 189.39 490.61 171.35 515.43 171.35"/><polygon class="cls-11" points="515.43 171.35 515.43 171.35 490.61 189.39 490.61 189.39 515.43 171.35 515.43 171.35"/><polygon class="cls-11" points="515.43 171.35 515.43 171.35 490.61 189.39 490.61 189.39 515.43 171.35 515.43 189.39 490.61 189.39 490.61 171.35 515.43 171.35"/><polygon class="cls-9" points="515.43 171.35 515.43 171.35 490.61 189.39 490.61 189.39 515.43 171.35 515.43 171.35"/><polygon class="cls-9" points="515.43 171.35 490.61 189.39 490.61 171.35 515.43 171.35"/></g><path class="cls-8" d="m490.61,191.23c-.57,0-1.13-.26-1.5-.76-.6-.83-.42-1.98.41-2.58l24.82-18.03c.83-.6,1.98-.42,2.58.41.6.83.42,1.98-.41,2.58l-24.82,18.03c-.33.24-.71.35-1.08.35Z"/><g class="cls-19"><polygon class="cls-6" points="505.49 215.99 505.49 215.99 534.67 206.51 534.67 215.99 505.49 215.99"/><polygon class="cls-6" points="534.67 206.51 505.49 215.99 505.49 206.51 534.67 206.51 534.67 215.99 505.49 215.99 534.67 206.51 534.67 206.51"/><rect class="cls-5" x="504.74" y="211.25" width="30.68" transform="translate(-39.83 171.05) rotate(-18)"/><rect class="cls-5" x="504.74" y="211.25" width="30.68" transform="translate(-39.83 171.05) rotate(-18)"/><rect class="cls-11" x="504.74" y="211.25" width="30.68" transform="translate(-39.83 171.05) rotate(-18)"/><rect class="cls-11" x="504.74" y="211.25" width="30.68" transform="translate(-39.83 171.05) rotate(-18)"/><rect class="cls-9" x="504.74" y="211.25" width="30.68" transform="translate(-39.83 171.05) rotate(-18)"/><polygon class="cls-9" points="534.67 206.51 505.49 215.99 505.49 206.51 534.67 206.51"/></g><path class="cls-8" d="m505.49,217.84c-.78,0-1.5-.5-1.76-1.28-.32-.97.22-2.01,1.19-2.33l29.18-9.48c.97-.31,2.01.21,2.33,1.19.32.97-.22,2.01-1.19,2.33l-29.18,9.48c-.19.06-.38.09-.57.09Z"/><path class="cls-8" d="m542.11,247.74h-30.68c-1.02,0-1.85-.83-1.85-1.85s.83-1.85,1.85-1.85h30.68c1.02,0,1.85.83,1.85,1.85s-.83,1.85-1.85,1.85Z"/><g class="cls-21"><polygon class="cls-6" points="486.26 347.96 468.23 323.14 486.26 323.14 486.26 347.96"/><rect class="cls-6" x="477.25" y="320.21" height="30.68" transform="translate(-106.09 344.6) rotate(-36)"/><rect class="cls-5" x="477.25" y="320.21" height="30.68" transform="translate(-106.09 344.6) rotate(-36)"/><rect class="cls-5" x="477.25" y="320.21" height="30.68" transform="translate(-106.09 344.6) rotate(-36)"/><rect class="cls-11" x="477.25" y="320.21" height="30.68" transform="translate(-106.09 344.6) rotate(-36)"/><rect class="cls-11" x="477.25" y="320.21" height="30.68" transform="translate(-106.09 344.6) rotate(-36)"/><rect class="cls-9" x="477.25" y="320.21" height="30.68" transform="translate(-106.09 344.6) rotate(-36)"/><polygon class="cls-9" points="468.23 323.14 468.23 323.14 486.26 347.96 468.23 347.96 468.23 323.14"/></g><path class="cls-8" d="m486.27,349.81c-.57,0-1.13-.26-1.5-.76l-18.03-24.82c-.6-.83-.42-1.98.41-2.58.83-.6,1.98-.42,2.58.41l18.03,24.82c.6.83.42,1.98-.41,2.58-.33.24-.71.35-1.08.35Z"/><g class="cls-20"><polygon class="cls-6" points="515.43 320.47 490.61 302.44 515.43 302.44 515.43 320.47"/><rect class="cls-6" x="503.02" y="296.12" height="30.68" transform="translate(-44.62 535.34) rotate(-54)"/><rect class="cls-5" x="503.02" y="296.12" height="30.68" transform="translate(-44.62 535.34) rotate(-54)"/><rect class="cls-5" x="503.02" y="296.12" height="30.68" transform="translate(-44.62 535.34) rotate(-54)"/><rect class="cls-11" x="503.02" y="296.12" height="30.68" transform="translate(-44.62 535.34) rotate(-54)"/><rect class="cls-11" x="503.02" y="296.12" height="30.68" transform="translate(-44.62 535.34) rotate(-54)"/><rect class="cls-9" x="503.02" y="296.12" height="30.68" transform="translate(-44.62 535.34) rotate(-54)"/><polygon class="cls-9" points="490.61 302.44 515.43 320.47 490.61 320.47 490.61 302.44"/></g><path class="cls-8" d="m515.43,322.32c-.38,0-.76-.11-1.08-.35l-24.82-18.03c-.83-.6-1.01-1.75-.41-2.58.6-.82,1.76-1.01,2.58-.41l24.82,18.03c.83.6,1.01,1.75.41,2.58-.36.5-.92.76-1.5.76Z"/><g class="cls-22"><polygon class="cls-6" points="534.67 285.31 505.49 275.83 534.67 275.83 534.67 285.31"/><polygon class="cls-6" points="505.49 275.83 505.49 275.83 534.67 285.31 534.67 285.31 505.49 275.83 505.49 275.83"/><rect class="cls-5" x="520.08" y="265.23" height="30.68" transform="translate(92.53 688.5) rotate(-72)"/><rect class="cls-5" x="520.08" y="265.23" height="30.68" transform="translate(92.53 688.5) rotate(-72)"/><rect class="cls-11" x="520.08" y="265.23" height="30.68" transform="translate(92.53 688.5) rotate(-72)"/><rect class="cls-11" x="520.08" y="265.23" height="30.68" transform="translate(92.53 688.5) rotate(-72)"/><rect class="cls-9" x="520.08" y="265.23" height="30.68" transform="translate(92.53 688.5) rotate(-72)"/><polygon class="cls-9" points="505.49 275.83 534.67 285.31 505.49 285.31 505.49 275.83"/></g><path class="cls-8" d="m534.67,287.16c-.19,0-.38-.03-.57-.09l-29.18-9.48c-.97-.32-1.5-1.36-1.19-2.33.32-.97,1.36-1.5,2.33-1.19l29.18,9.48c.97.32,1.5,1.36,1.19,2.33-.25.78-.98,1.28-1.76,1.28Z"/><g class="cls-24"><polygon class="cls-6" points="358.65 323.14 340.61 347.96 340.61 323.14 358.65 323.14"/><rect class="cls-6" x="334.29" y="335.55" width="30.68" transform="translate(-127.35 421.18) rotate(-54)"/><rect class="cls-5" x="334.29" y="335.55" width="30.68" transform="translate(-127.35 421.18) rotate(-54)"/><rect class="cls-5" x="334.29" y="335.55" width="30.68" transform="translate(-127.35 421.18) rotate(-54)"/><rect class="cls-11" x="334.29" y="335.55" width="30.68" transform="translate(-127.35 421.18) rotate(-54)"/><rect class="cls-11" x="334.29" y="335.55" width="30.68" transform="translate(-127.35 421.18) rotate(-54)"/><rect class="cls-9" x="334.29" y="335.55" width="30.68" transform="translate(-127.35 421.18) rotate(-54)"/><polygon class="cls-9" points="340.61 347.96 358.65 323.14 358.65 347.96 340.61 347.96"/></g><path class="cls-8" d="m340.61,349.81c-.38,0-.76-.11-1.08-.35-.83-.6-1.01-1.75-.41-2.58l18.03-24.82c.6-.83,1.76-1.01,2.58-.41.83.6,1.01,1.75.41,2.58l-18.03,24.82c-.36.5-.92.76-1.5.76Z"/><g class="cls-23"><polygon class="cls-6" points="336.27 302.44 311.45 320.47 311.45 302.44 336.27 302.44"/><rect class="cls-6" x="308.52" y="311.46" width="30.68" transform="translate(-121.22 249.84) rotate(-36)"/><rect class="cls-5" x="308.52" y="311.46" width="30.68" transform="translate(-121.22 249.84) rotate(-36)"/><rect class="cls-5" x="308.52" y="311.46" width="30.68" transform="translate(-121.22 249.84) rotate(-36)"/><rect class="cls-11" x="308.52" y="311.46" width="30.68" transform="translate(-121.22 249.84) rotate(-36)"/><rect class="cls-11" x="308.52" y="311.46" width="30.68" transform="translate(-121.22 249.84) rotate(-36)"/><polygon class="cls-9" points="311.45 320.47 336.27 302.44 336.27 320.47 311.45 320.47 311.45 302.44 336.27 302.44 311.45 320.47 311.45 320.47"/><polygon class="cls-9" points="311.45 320.47 336.27 302.44 336.27 320.47 311.45 320.47"/></g><path class="cls-8" d="m311.45,322.32c-.57,0-1.13-.26-1.5-.76-.6-.83-.42-1.98.41-2.58l24.82-18.03c.83-.6,1.98-.42,2.58.41.6.83.42,1.98-.41,2.58l-24.82,18.03c-.33.24-.71.35-1.08.35Z"/><g class="cls-25"><polygon class="cls-6" points="321.38 275.83 292.21 285.31 292.21 275.83 321.38 275.83"/><polygon class="cls-6" points="292.21 285.31 321.38 275.83 321.38 285.31 292.21 285.31 292.21 275.83 321.38 275.83 292.21 285.31 292.21 285.31"/><rect class="cls-5" x="291.46" y="280.57" width="30.68" transform="translate(-71.69 108.54) rotate(-18)"/><rect class="cls-5" x="291.46" y="280.57" width="30.68" transform="translate(-71.69 108.54) rotate(-18)"/><rect class="cls-11" x="291.46" y="280.57" width="30.68" transform="translate(-71.69 108.54) rotate(-18)"/><rect class="cls-11" x="291.46" y="280.57" width="30.68" transform="translate(-71.69 108.54) rotate(-18)"/><rect class="cls-9" x="291.46" y="280.57" width="30.68" transform="translate(-71.69 108.54) rotate(-18)"/><polygon class="cls-9" points="292.21 285.31 321.38 275.83 321.38 285.31 292.21 285.31"/></g><path class="cls-8" d="m292.21,287.16c-.78,0-1.5-.5-1.76-1.28-.32-.97.22-2.01,1.19-2.33l29.18-9.48c.97-.31,2.01.21,2.33,1.19.32.97-.22,2.01-1.19,2.33l-29.18,9.48c-.19.06-.38.09-.57.09Z"/><path class="cls-10" d="m396.19,395.59h49.69v12.26c0,6.95-5.64,12.58-12.58,12.58h-24.52c-6.95,0-12.58-5.64-12.58-12.58v-12.26h0Z"/><path class="cls-10" d="m433.21,422.82h-24.37c-8.3,0-15.05-6.75-15.05-15.05v-14.57h54.46v14.57c0,8.3-6.75,15.05-15.05,15.05Zm-34.64-24.84v9.8c0,5.67,4.61,10.27,10.27,10.27h24.37c5.66,0,10.27-4.61,10.27-10.27v-9.8h-44.91Z"/><path class="cls-10" d="m385.08,359.31h71.89v30.49c0,10.05-8.16,18.21-18.21,18.21h-35.47c-10.05,0-18.21-8.16-18.21-18.21v-30.49h0Z"/><path class="cls-10" d="m428.52,410.4h-14.97c-17.01,0-30.85-13.84-30.85-30.85v-22.63h76.67v22.63c0,17.01-13.84,30.85-30.85,30.85Zm-41.05-48.7v17.85c0,14.38,11.7,26.07,26.07,26.07h14.97c14.38,0,26.07-11.7,26.07-26.07v-17.85h-67.12Z"/><rect class="cls-7" x="385.08" y="364.85" width="71.89" height="1.42"/><rect class="cls-7" x="385.08" y="371.73" width="71.89" height="1.42"/><rect class="cls-7" x="385.08" y="378.61" width="71.89" height="1.42"/><rect class="cls-7" x="385.08" y="386.13" width="71.89" height="1.42"/><rect class="cls-7" x="387.5" y="393.65" width="67.07" height="1.42"/><rect class="cls-7" x="392.18" y="399.96" width="57.71" height="1.42"/><path class="cls-10" d="m472.47,241.39c.83.83,2.03,1.12,3.1.84l15.15,15.15c-.28,1.07,0,2.25.84,3.1,1.27,1.27,3.33,1.27,4.6,0,1.27-1.27,1.27-3.34,0-4.6-.84-.84-2.03-1.12-3.1-.84l-15.15-15.15c.28-1.07,0-2.26-.84-3.1-1.27-1.27-3.33-1.27-4.6,0-1.27,1.27-1.27,3.33,0,4.6Zm21.26,14.3c.68-.04,1.38.21,1.89.72.96.96.96,2.55,0,3.52-.96.96-2.55.96-3.51,0-.52-.52-.77-1.21-.72-1.89.03-.59.27-1.18.71-1.63s1.04-.7,1.64-.72Zm-17.19-18.36c.52.52.76,1.2.71,1.88-.03.59-.27,1.18-.72,1.64s-1.03.69-1.63.71c-.68.04-1.37-.2-1.88-.71-.97-.97-.96-2.55,0-3.51s2.55-.98,3.52,0Z"/><path class="cls-10" d="m477.09,274.94c-.84-.84-2.02-1.13-3.09-.85l-15.15-15.15c.28-1.07-.02-2.25-.85-3.09-1.27-1.27-3.32-1.27-4.6,0-1.27,1.27-1.27,3.33,0,4.6.83.83,2.03,1.12,3.1.84l15.15,15.15c-.28,1.07,0,2.25.84,3.1,1.27,1.27,3.33,1.27,4.6,0,1.27-1.27,1.27-3.33,0-4.6Zm-21.26-14.32c-.68.04-1.37-.2-1.88-.71-.97-.97-.96-2.55,0-3.51s2.55-.98,3.52,0c.52.52.76,1.2.71,1.88-.03.59-.28,1.19-.72,1.64-.45.45-1.03.69-1.63.71Zm17.2,18.37c-.52-.52-.77-1.21-.72-1.89.03-.59.27-1.18.71-1.63.45-.45,1.04-.7,1.64-.72.68-.04,1.38.21,1.89.72.96.96.96,2.55,0,3.52s-2.55.96-3.51,0Z"/><path class="cls-10" d="m483.45,268.58c-.84-.84-2.03-1.12-3.1-.84l-1.31-1.31c.28-1.07,0-2.25-.84-3.1-1.27-1.27-3.33-1.27-4.6,0s-1.27,3.33,0,4.6c.84.84,2.02,1.13,3.09.85l1.31,1.31c-.28,1.07,0,2.25.85,3.09,1.27,1.27,3.32,1.27,4.6,0,1.27-1.27,1.27-3.33,0-4.6Zm-7.42-.47c-.68.04-1.38-.21-1.89-.72-.96-.96-.96-2.55,0-3.52s2.55-.96,3.51,0c.52.52.77,1.21.72,1.89-.03.59-.27,1.18-.71,1.63s-1.04.7-1.64.72Zm3.36,4.53c-.52-.52-.77-1.21-.72-1.89.03-.59.27-1.18.72-1.64.45-.45,1.03-.69,1.63-.71.68-.04,1.38.21,1.89.72.96.96.96,2.55,0,3.51-.97.97-2.56.97-3.52,0Z"/><path class="cls-10" d="m489.8,262.23c-.84-.84-2.03-1.12-3.1-.84l-3.61-3.61-13.89-1.19-4-4c.28-1.07,0-2.26-.84-3.1-1.27-1.27-3.33-1.27-4.6,0s-1.27,3.33,0,4.6c.83.83,2.02,1.13,3.09.85l4.85,4.85,13.91,1.19,2.75,2.75c-.28,1.07,0,2.25.84,3.1,1.27,1.27,3.33,1.27,4.6,0s1.27-3.33,0-4.6Zm-27.62-7.96c-.68.04-1.37-.2-1.88-.71-.97-.97-.96-2.55,0-3.52.96-.96,2.54-.97,3.51,0,.52.52.76,1.2.71,1.88-.03.59-.27,1.18-.71,1.63-.46.46-1.04.7-1.64.72Zm23.56,12.01c-.52-.52-.77-1.21-.72-1.89.03-.59.26-1.17.71-1.63s1.03-.69,1.63-.71c.68-.04,1.37.2,1.89.72.96.96.97,2.54,0,3.51-.97.97-2.55.96-3.51,0Z"/><path class="cls-10" d="m466.12,247.74c.83.83,2.03,1.12,3.1.84l2.46,2.46c-.28,1.07,0,2.25.84,3.1,1.27,1.27,3.33,1.27,4.6,0,1.27-1.27,1.27-3.33,0-4.6-.84-.84-2.03-1.12-3.1-.84l-2.46-2.46c.28-1.07,0-2.26-.84-3.1-1.27-1.27-3.33-1.27-4.6,0-1.27,1.27-1.27,3.33,0,4.6Zm8.56,1.62c.68-.04,1.37.2,1.89.72.96.96.97,2.54,0,3.51-.97.97-2.55.96-3.51,0-.52-.52-.77-1.21-.72-1.89.03-.59.26-1.17.71-1.63.46-.46,1.03-.69,1.63-.71Zm-4.5-5.67c.52.52.77,1.21.71,1.88-.03.59-.26,1.17-.71,1.63s-1.03.69-1.63.71c-.67.05-1.36-.19-1.88-.71-.97-.97-.97-2.54,0-3.51s2.54-.97,3.51,0Z"/><path class="cls-10" d="m410.15,208.47c-.83-.83-2.03-1.12-3.1-.84l-5.44-5.44c.28-1.07,0-2.26-.85-3.11-1.27-1.27-3.33-1.27-4.6,0s-1.27,3.34,0,4.6c.84.84,2.04,1.13,3.11.85l5.44,5.44c-.28,1.07,0,2.26.84,3.1,1.27,1.27,3.33,1.27,4.6,0,1.27-1.27,1.27-3.32,0-4.6Zm-11.56-4.6c-.68.04-1.38-.21-1.89-.72-.96-.96-.96-2.55,0-3.52.96-.96,2.55-.96,3.51,0,.52.52.77,1.21.72,1.89-.03.59-.27,1.18-.71,1.63-.46.46-1.04.7-1.64.72Zm7.5,8.67c-.52-.52-.76-1.2-.71-1.88.03-.59.27-1.18.72-1.64s1.03-.69,1.63-.71c.68-.04,1.37.2,1.88.71.97.97.97,2.56,0,3.52-.97.97-2.56.97-3.53,0Z"/><path class="cls-10" d="m449.08,249.67c1.27-1.27,1.27-3.33,0-4.6-1.27-1.27-3.33-1.27-4.6,0-.83.83-1.12,2.03-.84,3.1l-30.97,30.97c-1.07-.28-2.26,0-3.1.84-1.27,1.27-1.27,3.33,0,4.6s3.33,1.27,4.6,0c.84-.84,1.12-2.01.85-3.09l30.97-30.97c1.08.27,2.26-.02,3.09-.85Zm-35.45,34.38c-.96.96-2.55.96-3.52,0-.97-.97-.96-2.55,0-3.51.52-.52,1.21-.77,1.89-.72.59.03,1.17.26,1.63.71s.7,1.04.72,1.64c.04.68-.21,1.38-.72,1.89Zm31.39-34.91c-.46-.46-.69-1.03-.71-1.63-.04-.68.2-1.37.72-1.89.97-.97,2.54-.97,3.51,0,.97.97.98,2.55,0,3.52-.52.52-1.21.77-1.89.72-.59-.03-1.18-.27-1.64-.72Z"/><path class="cls-10" d="m424.41,249.24c1.27-1.27,1.27-3.33,0-4.6s-3.33-1.28-4.6,0c-.83.83-1.12,2.03-.84,3.1l-18.85,18.85c-1.07-.28-2.26,0-3.1.84-1.27,1.27-1.27,3.33,0,4.6s3.33,1.27,4.6,0c.84-.84,1.12-2.03.84-3.1l18.85-18.85c1.07.28,2.26,0,3.1-.84Zm-23.34,22.25c-.96.96-2.55.96-3.51,0s-.97-2.56,0-3.52c.52-.52,1.21-.77,1.89-.72.59.03,1.18.27,1.64.72.45.45.69,1.03.71,1.63.04.68-.21,1.38-.72,1.89Zm19.28-22.8c-.46-.46-.7-1.04-.72-1.64-.04-.68.2-1.37.71-1.88.97-.97,2.56-.97,3.53,0s.96,2.55,0,3.52c-.52.52-1.2.76-1.88.71-.59-.03-1.18-.27-1.63-.71Z"/><path class="cls-10" d="m396,262.48l21.42-21.42,13.68-.76,10.91-10.91-16.17-16.17c.28-1.07,0-2.26-.84-3.1-1.27-1.27-3.33-1.27-4.6,0s-1.27,3.32,0,4.6c.83.83,2.02,1.13,3.09.85l13.82,13.82-7.66,7.66-13.68.76-22.31,22.31c-1.07-.28-2.26,0-3.1.84-1.27,1.27-1.27,3.33,0,4.6s3.33,1.27,4.6,0c.84-.84,1.12-2.03.84-3.1Zm26.82-47.57c-.68.04-1.37-.2-1.88-.71-.97-.97-.97-2.56,0-3.53s2.55-.96,3.52,0c.52.52.76,1.2.71,1.88-.03.59-.27,1.18-.71,1.63-.46.46-1.04.7-1.64.72Zm-31.72,50.13c-.97-.97-.97-2.56,0-3.52.52-.52,1.21-.77,1.89-.72.59.03,1.19.28,1.64.72s.69,1.03.71,1.63c.04.68-.21,1.38-.72,1.89-.96.96-2.55.96-3.51,0Z"/><path class="cls-10" d="m426.62,227.19l-8.93-8.93-1.66-14.85-7.82-7.82c.28-1.07,0-2.26-.85-3.11-1.27-1.27-3.33-1.27-4.6,0-1.27,1.27-1.27,3.33,0,4.6.84.84,2.03,1.14,3.1.86l7.01,7.01,1.65,14.84,9.5,9.4c.81-.74,1.68-1.41,2.6-1.99Zm-19.8-30.64c-.46.46-1.04.7-1.64.72-.68.04-1.38-.21-1.89-.72-.96-.96-.96-2.55,0-3.52s2.55-.96,3.51,0c.52.52.77,1.21.72,1.89-.03.59-.27,1.18-.71,1.63Z"/><path class="cls-10" d="m454.86,227.29c-.84-.84-2.04-1.13-3.11-.85l-37.19-37.19c.28-1.07,0-2.26-.85-3.11-1.27-1.27-3.33-1.27-4.6,0s-1.27,3.33,0,4.6c.84.84,2.04,1.13,3.11.85l37.19,37.19c-.28,1.07,0,2.26.85,3.11,1.27,1.27,3.33,1.27,4.6,0s1.27-3.33,0-4.6Zm-43.31-36.38c-.68.04-1.37-.2-1.89-.72-.96-.96-.97-2.54,0-3.51s2.55-.96,3.51,0c.52.52.77,1.21.72,1.89-.03.59-.26,1.17-.71,1.63s-1.03.69-1.63.71Zm39.26,40.43c-.52-.52-.77-1.21-.72-1.89.03-.59.26-1.17.71-1.63s1.03-.69,1.63-.71c.68-.04,1.37.2,1.89.72.96.96.97,2.54,0,3.51s-2.55.96-3.51,0Z"/><path class="cls-10" d="m409,275.48l33.97-33.97,12.82-.78,11.49-11.49-46.36-46.36c.28-1.07,0-2.26-.85-3.11-1.27-1.27-3.33-1.27-4.6,0-1.27,1.27-1.27,3.33,0,4.6.84.84,2.04,1.13,3.11.85l44.01,44.01-8.26,8.26-12.82.78-34.85,34.85c-1.07-.28-2.26,0-3.1.84-1.27,1.27-1.27,3.33,0,4.6s3.33,1.27,4.6,0c.84-.84,1.12-2.03.84-3.1Zm8.89-90.92c-.68.04-1.38-.21-1.89-.72-.96-.96-.96-2.55,0-3.51.97-.97,2.56-.97,3.52,0,.52.52.77,1.21.72,1.89-.03.59-.27,1.18-.72,1.64s-1.03.69-1.63.71Zm-13.79,93.48c-.97-.97-.97-2.56,0-3.52.52-.52,1.21-.77,1.89-.72.59.03,1.18.27,1.64.72s.69,1.03.71,1.63c.04.68-.21,1.38-.72,1.89-.96.96-2.55.96-3.51,0Z"/><path class="cls-8" d="m406.03,319.89c-1.27-1.27-3.33-1.27-4.6,0s-1.27,3.33,0,4.6c.83.83,2.03,1.12,3.1.84l9.47,9.47c-.28,1.07,0,2.26.85,3.11,1.27,1.27,3.33,1.27,4.6,0,1.27-1.27,1.27-3.33,0-4.6-.84-.84-2.02-1.13-3.1-.86l-9.47-9.47c.27-1.08-.02-2.25-.85-3.09Zm12.88,13.95c.96.96.96,2.55,0,3.52-.97.97-2.55.96-3.51,0-.52-.52-.77-1.21-.72-1.89.02-.59.27-1.18.71-1.63.45-.45,1.04-.7,1.64-.72.68-.04,1.38.21,1.89.72Zm-13.43-9.9c-.45.45-1.04.7-1.63.71-.67.05-1.36-.19-1.88-.71-.97-.97-.98-2.55,0-3.52.97-.97,2.56-.97,3.53,0,.52.52.76,1.2.71,1.88-.03.59-.28,1.19-.72,1.64Z"/><path class="cls-8" d="m371.34,285.2c-1.27-1.27-3.33-1.27-4.6,0s-1.27,3.33,0,4.6c.83.83,2.03,1.12,3.1.84l23.63,23.63c-.28,1.07,0,2.26.84,3.1,1.27,1.27,3.33,1.27,4.6,0,1.27-1.27,1.27-3.33,0-4.6-.84-.84-2.01-1.12-3.09-.85l-23.63-23.63c.27-1.08-.02-2.25-.85-3.09Zm27.04,28.11c.96.96.96,2.55,0,3.52-.97.97-2.55.96-3.51,0-.53-.53-.77-1.21-.72-1.89.02-.59.27-1.18.71-1.63.45-.45,1.04-.7,1.64-.72.68-.04,1.38.21,1.89.72Zm-27.58-24.06c-.45.45-1.04.7-1.63.71-.67.05-1.36-.19-1.88-.71-.97-.97-.98-2.55,0-3.52.97-.97,2.56-.97,3.53,0,.52.52.76,1.2.71,1.88-.03.59-.28,1.19-.72,1.64Z"/><path class="cls-8" d="m402.5,297.13c-.04.06-.09.13-.15.19.06-.06.11-.11.15-.17v-.02Z"/><path class="cls-8" d="m422.21,326.59l-44.93-44.93s-.02-.05,0-.07l3.45-3.45s.05-.02.07,0l17.2,17.2c-.28,1.07,0,2.26.85,3.11,1.27,1.27,3.33,1.27,4.6,0,1.27-1.27,1.27-3.33,0-4.6-.84-.84-2.04-1.13-3.11-.85l-18.41-18.41-.59-.59-1.14.03s-.22.2-.57.55h-.05l-5.87,5.87v.05c-.34.34-.55.57-.55.57l-.03,1.14.59.59,46.13,46.13c-.28,1.07,0,2.26.85,3.11,1.27,1.27,3.33,1.27,4.6,0s1.27-3.33,0-4.6c-.84-.84-2.04-1.13-3.11-.85Zm-21.18-32.92c.68-.04,1.38.21,1.89.72.96.96.96,2.55,0,3.51-.97.97-2.56.97-3.52,0-.52-.52-.77-1.21-.72-1.89.03-.59.28-1.19.72-1.64s1.03-.69,1.63-.71Zm23.75,37.83c-.97.97-2.56.97-3.52,0-.52-.52-.76-1.22-.72-1.91.03-.59.28-1.17.72-1.62.45-.45,1.04-.7,1.63-.71.68-.04,1.37.2,1.89.72.96.96.97,2.54,0,3.51Z"/><path class="cls-8" d="m416.52,295.17c-1.27-1.27-3.32-1.27-4.6,0s-1.27,3.32,0,4.6c.83.83,2.03,1.12,3.1.84l16.59,16.59c-.28,1.07,0,2.26.85,3.11,1.27,1.27,3.33,1.27,4.6,0,1.27-1.27,1.27-3.33,0-4.6-.84-.84-2.03-1.14-3.1-.86l-16.59-16.59c.28-1.07-.02-2.26-.85-3.09Zm20,21.07c.96.96.96,2.55,0,3.52s-2.55.96-3.51,0c-.52-.52-.77-1.21-.72-1.89.03-.59.26-1.17.71-1.63s1.04-.7,1.64-.72c.68-.04,1.38.21,1.89.72Zm-20.54-17.02c-.46.46-1.03.69-1.63.71-.68.04-1.37-.2-1.88-.71-.97-.97-.98-2.55,0-3.52.97-.97,2.56-.97,3.53,0,.52.52.76,1.2.71,1.88-.03.59-.27,1.18-.72,1.64Z"/><path class="cls-8" d="m384.35,267.6c-1.27,1.27-1.27,3.33,0,4.6.83.83,2.03,1.12,3.1.84l17.99,17.99s0,0,0,.03l1.26,12.45.06.58s0,.03.02.03l.4.4,18.56,18.56c-.28,1.07,0,2.26.85,3.11,1.27,1.27,3.33,1.27,4.6,0,1.27-1.27,1.27-3.33,0-4.6-.84-.84-2.04-1.13-3.11-.85l-18.13-18.13s-.02-.02-.02-.03l-1.26-12.45-.06-.58s0-.02,0-.03l-.4-.4-18.42-18.42c.28-1.07-.02-2.25-.85-3.09-1.27-1.27-3.32-1.27-4.6,0Zm46.3,54.52c.96.96.96,2.55,0,3.51-.97.97-2.56.97-3.52,0-.52-.52-.77-1.21-.72-1.89.03-.59.28-1.19.72-1.64s1.03-.69,1.63-.71c.68-.04,1.38.21,1.89.72Zm-41.53-52.1c-.03.59-.27,1.18-.72,1.64s-1.03.69-1.63.71c-.67.05-1.36-.19-1.88-.71-.97-.97-.98-2.55,0-3.52.97-.97,2.56-.97,3.53,0,.52.52.76,1.2.71,1.88Z"/><path class="cls-8" d="m390.13,205.49c-.83.83-1.12,2.01-.85,3.09l-14.9,14.9c-1.08-.27-2.26.02-3.09.85-1.27,1.27-1.27,3.34,0,4.6s3.33,1.27,4.6,0c.83-.83,1.12-2.03.84-3.1l14.9-14.9c1.07.28,2.26,0,3.1-.84,1.27-1.27,1.27-3.34,0-4.6s-3.33-1.27-4.6,0Zm-14.07,21.01c.04.68-.2,1.37-.71,1.88-.97.97-2.55.98-3.52,0-.97-.97-.97-2.56,0-3.53.52-.52,1.2-.76,1.88-.71.59.03,1.18.27,1.64.72.46.46.69,1.03.71,1.63Zm18.12-16.95c-.52.52-1.2.76-1.88.71-.59-.03-1.17-.26-1.63-.71s-.7-1.04-.72-1.64c-.04-.68.2-1.37.71-1.88.97-.97,2.56-.97,3.53,0,.97.97.96,2.55,0,3.52Z"/><path class="cls-8" d="m396.39,211.74c-.83.83-1.12,2.03-.84,3.1l-19.11,19.11s0,0-.03,0h-.02l-11.09-.64-.71-.03s-.03,0-.03,0l-.52.52-22.38,22.38c-1.08-.27-2.26.02-3.09.85-1.27,1.27-1.27,3.33,0,4.6,1.27,1.27,3.33,1.27,4.6,0,.83-.83,1.12-2.03.84-3.1l21.84-21.84s.03,0,.03-.02l11.08.65.71.04s.03,0,.03-.02l.52-.52,19.65-19.65c1.07.28,2.26,0,3.1-.84,1.27-1.27,1.27-3.34,0-4.6s-3.33-1.27-4.6,0Zm-53.03,47.45c.04.68-.2,1.37-.72,1.89-.97.97-2.54.97-3.51,0-.97-.97-.98-2.55,0-3.52.52-.52,1.21-.77,1.89-.72.59.03,1.18.27,1.64.72s.69,1.03.71,1.63Zm57.09-43.4c-.52.52-1.2.76-1.88.71-.59-.02-1.18-.27-1.63-.71s-.69-1.03-.72-1.62c-.04-.68.2-1.39.71-1.9.97-.97,2.56-.97,3.53,0,.97.97.96,2.55,0,3.52Z"/><path class="cls-8" d="m349.44,267.89c.83-.83,1.12-2.03.84-3.1l17.76-17.76c1.07.28,2.26,0,3.1-.84,1.27-1.27,1.27-3.34,0-4.6-1.27-1.27-3.33-1.27-4.6,0-.83.83-1.12,2.03-.84,3.1l-17.76,17.76c-1.07-.28-2.26,0-3.1.84-1.27,1.27-1.27,3.33,0,4.6,1.27,1.27,3.33,1.27,4.6,0Zm16.93-23.87c-.04-.68.2-1.39.71-1.9.97-.97,2.56-.97,3.53,0,.97.97.96,2.55,0,3.52-.52.52-1.2.76-1.88.71-.59-.02-1.18-.27-1.63-.71-.45-.45-.69-1.03-.72-1.62Zm-20.99,19.8c.53-.53,1.22-.76,1.91-.72.59.03,1.17.28,1.62.72s.7,1.04.71,1.63c.04.68-.2,1.37-.72,1.89-.97.97-2.54.97-3.51,0s-.98-2.55,0-3.52Z"/><path class="cls-8" d="m402.65,218c-.83.83-1.12,2.03-.84,3.1l-1.38,1.38c-1.07-.28-2.26,0-3.1.84-1.27,1.27-1.27,3.33,0,4.6s3.33,1.27,4.6,0c.83-.83,1.12-2.03.84-3.1l1.38-1.38c1.07.28,2.26,0,3.1-.84,1.27-1.27,1.27-3.34,0-4.6s-3.33-1.27-4.6,0Zm-.55,7.48c.04.68-.2,1.37-.72,1.89-.97.97-2.54.97-3.51,0-.97-.97-.97-2.54,0-3.51.52-.52,1.21-.77,1.89-.72.59.03,1.17.26,1.63.71s.69,1.03.71,1.63Zm4.6-3.43c-.52.52-1.2.76-1.88.71-.59-.03-1.17-.26-1.63-.71s-.69-1.03-.71-1.63c-.04-.68.2-1.37.71-1.88.97-.97,2.55-.98,3.52,0s.96,2.55,0,3.52Z"/><path class="cls-8" d="m408.91,224.26c-.83.83-1.12,2.03-.84,3.1l-6.34,6.34s-.03,0-.03.02h-.02l-9.14-2.22-.87-.22s-.03,0-.05.02l-.64.64-36.78,36.78c-1.07-.28-2.26,0-3.1.84-1.27,1.27-1.27,3.33,0,4.6s3.33,1.27,4.6,0c.83-.83,1.12-2.03.84-3.1l36.1-36.1s.03,0,.03-.02h.02l4.25,1.03,5.77,1.41s.03,0,.04-.03l.64-.64,7.02-7.02c1.07.28,2.26,0,3.1-.84,1.27-1.27,1.27-3.34,0-4.6s-3.33-1.27-4.6,0Zm-53.03,47.45c.04.68-.2,1.37-.72,1.89-.97.97-2.54.97-3.51,0s-.97-2.54,0-3.51c.53-.53,1.21-.77,1.89-.72.59.03,1.17.26,1.63.71s.69,1.03.71,1.63Zm57.09-43.39c-.52.52-1.22.76-1.9.71-.59-.03-1.17-.28-1.62-.72s-.7-1.04-.71-1.63c-.04-.68.2-1.37.71-1.88.97-.97,2.55-.98,3.52,0,.97.97.97,2.56,0,3.53Z"/><path class="cls-8" d="m361.95,280.4c.83-.83,1.12-2.03.84-3.1l30.85-30.85c1.07.28,2.26,0,3.1-.84,1.27-1.27,1.27-3.33,0-4.6-1.27-1.27-3.33-1.27-4.6,0-.83.83-1.12,2.03-.84,3.1l-30.85,30.85c-1.07-.28-2.26,0-3.1.84-1.27,1.27-1.27,3.33,0,4.6s3.33,1.27,4.6,0Zm30.01-36.95c-.04-.68.2-1.37.72-1.89.97-.97,2.54-.97,3.51,0s.98,2.55,0,3.52c-.53.53-1.22.76-1.91.72-.59-.03-1.17-.28-1.62-.72s-.7-1.04-.71-1.63Zm-34.07,32.9c.53-.53,1.21-.77,1.89-.72.59.02,1.18.27,1.63.71.45.45.69,1.03.72,1.62.03.69-.2,1.39-.72,1.91-.97.97-2.55.96-3.52,0-.97-.97-.97-2.54,0-3.51Z"/><path class="cls-8" d="m466.49,281.84c-.83.83-1.12,2.03-.84,3.1l-21.2,21.2c-1.07-.28-2.27,0-3.1.84-1.27,1.27-1.27,3.33,0,4.6,1.27,1.27,3.32,1.27,4.6,0,.83-.83,1.12-2.03.84-3.1l21.2-21.2c1.07.28,2.26,0,3.1-.84,1.27-1.27,1.27-3.34,0-4.6s-3.34-1.27-4.61,0Zm-20.37,27.33c.04.68-.19,1.37-.71,1.88-.97.97-2.56.97-3.52,0-.97-.97-.97-2.55,0-3.53.52-.52,1.2-.75,1.88-.71.6.02,1.18.26,1.63.72s.69,1.03.71,1.63Zm24.44-23.26c-.52.52-1.21.76-1.89.71-.59-.03-1.18-.27-1.62-.72s-.7-1.04-.72-1.63c-.04-.68.2-1.37.71-1.89.97-.97,2.56-.97,3.53,0s.97,2.55,0,3.52Z"/><path class="cls-8" d="m426.59,292.23c.83-.83,1.12-2.03.84-3.1l21.2-21.2c1.07.28,2.26,0,3.1-.84,1.27-1.27,1.27-3.34,0-4.6-1.27-1.27-3.34-1.27-4.61,0-.83.83-1.12,2.03-.84,3.1l-21.2,21.2c-1.06-.27-2.26,0-3.1.84-1.27,1.27-1.27,3.33,0,4.6,1.27,1.27,3.32,1.27,4.6,0Zm20.37-27.32c-.04-.68.2-1.37.72-1.88.97-.97,2.56-.97,3.53,0s.97,2.54,0,3.52c-.52.52-1.2.76-1.88.72-.59-.03-1.18-.27-1.62-.72s-.7-1.04-.73-1.63Zm-24.43,23.26c.52-.52,1.2-.75,1.88-.71.6.03,1.18.27,1.64.72s.69,1.03.71,1.63c.04.68-.2,1.36-.71,1.88-.97.97-2.55.97-3.52,0s-.97-2.55,0-3.53Z"/><path class="cls-8" d="m432.53,298.18c.83-.83,1.12-2.03.84-3.1l2.96-2.96c1.07.28,2.27,0,3.1-.84s1.13-2.03.85-3.11c-.13-.55-.42-1.07-.84-1.5s-.95-.71-1.5-.85c-1.08-.28-2.27,0-3.11.85s-1.12,2.03-.84,3.1l-2.96,2.96c-1.07-.28-2.27,0-3.1.84s-1.13,2.03-.84,3.11c.14.55.42,1.07.85,1.5s.95.71,1.49.85c1.07.28,2.26,0,3.11-.84Zm2.84-10.97c.52-.52,1.22-.76,1.9-.72.6.03,1.18.27,1.63.72s.69,1.03.72,1.62c.04.68-.2,1.38-.72,1.9s-1.21.76-1.88.71c-.6-.02-1.18-.26-1.63-.71-.45-.45-.7-1.04-.72-1.63-.05-.68.19-1.37.71-1.88Zm-6.9,6.9c.52-.52,1.2-.75,1.88-.71.6.02,1.18.26,1.63.72s.69,1.03.71,1.63c.04.68-.19,1.37-.71,1.88s-1.22.76-1.9.72c-.59-.03-1.18-.27-1.62-.72s-.69-1.03-.72-1.63c-.04-.68.2-1.38.72-1.9Z"/><path class="cls-8" d="m453.07,268.42c-.83.83-1.12,2.03-.84,3.1l-5.65,5.65-3.13,3.13.13,4.56.24,8.49-6.08,6.08c-1.07-.28-2.27,0-3.1.84-1.27,1.27-1.26,3.33,0,4.6,1.27,1.27,3.32,1.27,4.6,0,.83-.83,1.12-2.03.84-3.1l3.86-3.86,3.13-3.13-.13-4.56-.24-8.49,7.87-7.87c1.07.28,2.27,0,3.1-.84,1.27-1.27,1.27-3.34,0-4.61-1.27-1.27-3.34-1.27-4.61,0Zm-13.66,34.04c.04.68-.19,1.37-.71,1.88-.97.97-2.56.97-3.52,0-.97-.97-.97-2.55,0-3.53.52-.52,1.2-.75,1.88-.71.6.02,1.18.26,1.63.72s.69,1.03.71,1.63Zm17.72-29.97c-.52.52-1.21.76-1.89.71-.59-.03-1.18-.27-1.62-.72s-.7-1.04-.72-1.63c-.04-.68.2-1.37.71-1.89.97-.97,2.56-.97,3.53,0,.96.96.97,2.55,0,3.52Z"/><path class="cls-8" d="m459.78,275.14c-.83.83-1.12,2.03-.84,3.1l-4.35,4.35c-1.07-.28-2.27,0-3.1.84-.84.84-1.13,2.03-.84,3.11.14.55.42,1.07.85,1.5s.95.71,1.49.85c1.07.28,2.26,0,3.1-.85s1.12-2.03.84-3.1l4.35-4.35c1.07.28,2.26,0,3.1-.84.84-.84,1.13-2.03.85-3.11-.13-.55-.42-1.07-.84-1.5s-.95-.71-1.5-.85c-1.08-.28-2.27,0-3.11.85Zm-4.23,12.36c-.52.52-1.22.76-1.9.73-.59-.03-1.18-.27-1.62-.72s-.69-1.03-.72-1.63c-.04-.68.21-1.38.73-1.9s1.2-.75,1.88-.71c.59.03,1.18.26,1.63.72s.69,1.04.71,1.63c.04.68-.19,1.37-.71,1.88Zm8.29-8.29c-.52.52-1.21.76-1.89.71-.59-.03-1.18-.27-1.62-.72-.45-.45-.7-1.04-.72-1.63-.04-.68.2-1.37.71-1.89.52-.52,1.22-.76,1.9-.72.6.03,1.18.27,1.63.72s.69,1.03.72,1.62c.04.68-.2,1.38-.72,1.9Z"/><path class="cls-10" d="m430.63,228.85c-.83-.83-2.13-1.21-3.2-.94l-1.38-1.25c-.64.9-1.42,1.57-2.22,2.34l1.36,1.36c-.28,1.07,0,2.26.84,3.1,1.27,1.27,3.33,1.27,4.6,0,1.27-1.27,1.27-3.32,0-4.6Zm-.53,4.06c-.97.97-2.56.97-3.53,0-.52-.52-.76-1.2-.71-1.88.03-.59.27-1.18.72-1.64.45-.45,1.03-.69,1.63-.71.68-.04,1.37.2,1.88.71.97.97.97,2.56,0,3.52Z"/><path class="cls-1" d="m286.79,207.26l-2.74,6.91c1.09-2.43,1.97-4.71,2.74-6.91Z"/><path class="cls-2" d="m330.55,383.83c-1.15.12-2.32.17-3.51.17h-71.72c-48.22,0-87.44-38.73-87.44-86.33s39.23-86.33,87.44-86.33c3.34,0,6.73.21,10.37.64l18.36,2.18,2.74-6.91c15.73-45.02-33.37-43.04-33.37-43.04-73.68,1.01-133.31,60.49-133.31,133.47s60.65,133.48,135.21,133.48h71.72c1.18,0,2.34-.03,3.51-.08v-47.25Z"/><path class="cls-3" d="m596.4,224.14c-10.63-89.07-87.58-158.41-180.63-158.41-69.59,0-131.57,38.13-162.35,98.48,0,0,49.1-1.98,33.37,43.04l3.99-10.09c20.26-51.2,69.32-84.28,124.99-84.28,73.95,0,134.12,59.39,134.12,132.4v23.58c53.28,0,46.51-44.72,46.51-44.72Z"/><path class="cls-4" d="m596.4,224.14s6.77,44.72-46.51,44.72h23.88c31.55,0,57.73,25.3,58.34,56.4.3,15.13-5.62,29.59-16.66,40.71-11.38,11.46-27.16,18.03-43.28,18.03h-74.47v47.15h74.47c28.87,0,57.07-11.73,77.38-32.17,20.1-20.24,30.87-46.75,30.32-74.64-.97-48.95-36.7-90-83.47-100.2Z"/></svg>